<?xml version="1.0" standalone="no"?>
<!DOCTYPE svg PUBLIC "-//W3C//DTD SVG 20010904//EN"
 "http://www.w3.org/TR/2001/REC-SVG-20010904/DTD/svg10.dtd">
<svg version="1.0" xmlns="http://www.w3.org/2000/svg"
 width="273.000000pt" height="273.000000pt" viewBox="0 0 273.000000 273.000000"
 preserveAspectRatio="xMidYMid meet">

<g transform="translate(0.000000,273.000000) scale(0.100000,-0.100000)"
fill="#000000" stroke="none">
<path d="M1324 2660 c-38 -15 -77 -77 -82 -129 l-4 -47 -70 -12 c-143 -25
-313 -96 -438 -183 -112 -78 -285 -258 -343 -355 -131 -221 -187 -447 -171
-689 11 -170 45 -295 125 -456 167 -336 479 -562 862 -623 154 -25 148 -27
141 47 -15 150 -41 278 -60 293 -35 28 -99 54 -135 54 -30 0 -43 -7 -69 -36
l-31 -36 -35 41 c-27 31 -43 41 -65 41 -30 0 -42 -20 -11 -20 9 -1 28 -7 42
-15 22 -13 23 -14 5 -15 -17 -1 -16 -3 8 -16 37 -20 35 -28 -3 -9 -17 9 -28
20 -25 25 3 5 -10 11 -30 14 -19 4 -52 9 -72 12 -21 3 -53 8 -71 10 l-34 4 37
-34 c20 -19 52 -40 71 -46 19 -6 34 -15 34 -18 0 -4 11 -12 24 -18 19 -9 23
-9 19 2 -5 14 33 8 43 -7 9 -16 24 -10 33 13 7 19 10 16 27 -25 18 -44 41 -68
27 -29 -5 13 -1 12 16 -5 12 -13 29 -23 39 -23 15 0 15 -2 2 -10 -20 -13 -94
-9 -145 8 -70 23 -162 72 -191 102 -16 16 -33 30 -38 30 -5 0 -24 16 -42 35
-17 19 -38 35 -45 35 -20 0 108 -126 166 -164 107 -69 260 -107 333 -82 25 9
32 -8 6 -18 -127 -49 -336 34 -522 207 -76 71 -96 68 -26 -4 113 -115 367
-248 446 -232 20 4 29 3 25 -4 -4 -7 12 -13 41 -18 72 -10 123 -25 117 -34 -6
-11 -54 -11 -61 0 -2 4 -15 4 -27 0 -26 -10 -85 5 -109 27 -12 10 -18 11 -18
3 0 -13 -39 -6 -79 15 -14 8 -35 14 -46 14 -28 0 -146 64 -184 99 -17 16 -31
27 -31 24 0 -2 -20 12 -45 33 -25 20 -45 34 -45 32 0 -13 -138 134 -176 188
-107 150 -188 376 -203 567 -28 346 96 682 336 911 148 141 287 228 459 285
92 31 202 53 218 44 14 -9 -17 -22 -99 -43 -42 -11 -96 -28 -122 -40 -25 -11
-52 -20 -59 -20 -17 0 -85 -31 -101 -46 -6 -6 -25 -17 -42 -24 -17 -7 -31 -17
-31 -22 0 -5 -4 -7 -9 -4 -5 4 -11 3 -13 -1 -1 -5 -21 -21 -43 -38 -22 -16
-49 -36 -60 -45 -87 -67 -276 -294 -268 -322 2 -4 -1 -8 -6 -8 -10 0 -56 -100
-67 -145 -4 -16 -11 -32 -15 -35 -7 -5 -16 -40 -24 -100 -2 -14 -8 -36 -13
-50 -10 -26 -9 -327 1 -370 3 -14 8 -36 11 -50 8 -46 48 -175 63 -205 24 -48
144 -225 153 -225 11 0 0 42 -16 61 -8 9 -12 18 -8 21 3 3 -7 15 -22 27 -26
20 -59 71 -47 71 3 0 21 -10 40 -21 l35 -22 -14 24 c-16 30 -30 40 -45 35 -6
-3 -19 2 -30 11 -16 13 -17 14 0 9 15 -5 16 -3 5 17 -7 12 -12 26 -13 30 0 5
-9 15 -19 23 -11 7 -17 17 -13 20 4 4 1 14 -6 22 -10 13 -9 14 3 7 9 -5 7 1
-5 15 l-20 23 20 -6 c17 -6 17 -5 -3 9 -23 17 -31 41 -9 28 6 -4 3 2 -7 14
-11 12 -15 22 -11 22 5 0 4 5 -3 12 -17 17 -15 31 4 24 15 -6 15 -4 3 10 -8
10 -14 24 -14 33 0 9 -4 22 -8 29 -11 17 4 15 33 -5 l25 -17 -19 22 c-11 12
-15 22 -10 22 5 0 0 7 -11 15 -13 11 -20 29 -21 60 -1 25 2 45 7 45 14 0 20
-18 7 -22 -9 -3 -9 -6 0 -12 7 -4 12 -2 12 4 0 6 5 8 10 5 21 -13 9 8 -16 27
-33 26 -24 35 13 12 23 -15 22 -12 -7 14 -19 17 -30 31 -25 32 6 0 17 -6 25
-12 9 -8 8 -5 -1 7 -16 20 -22 55 -9 55 4 0 20 -9 36 -21 21 -15 19 -12 -5 10
-44 39 -35 51 10 14 19 -15 27 -20 19 -9 -8 10 -15 25 -16 33 -1 8 -6 22 -10
31 -10 24 -11 72 -2 78 5 3 6 10 3 15 -4 5 -1 9 5 9 6 0 9 4 6 9 -4 5 0 12 6
14 10 4 10 6 1 6 -7 1 -13 6 -13 12 0 5 4 8 9 5 5 -4 17 -3 26 0 13 5 14 8 3
15 -16 10 -20 51 -4 46 6 -3 10 -9 9 -15 -1 -5 5 -16 15 -24 15 -12 16 -11 3
5 -7 9 -10 17 -6 17 5 0 0 9 -10 20 -20 22 -8 28 15 8 8 -7 6 -3 -4 10 -23 27
-3 31 26 5 17 -15 18 -15 18 0 0 9 -9 22 -20 29 -26 17 -26 32 1 25 17 -5 18
-3 7 11 -11 14 -10 15 6 9 16 -6 17 -5 6 8 -8 10 -9 15 -1 15 6 0 11 6 11 13
0 8 11 24 24 36 14 13 22 29 19 37 -3 8 0 14 7 14 6 0 9 4 6 9 -3 4 3 19 14
31 17 20 22 21 37 9 10 -8 21 -18 25 -24 4 -5 10 -7 13 -3 4 4 -5 14 -19 23
-31 21 -33 31 -6 40 11 4 18 10 15 15 -8 13 33 32 48 24 8 -5 7 -2 -2 9 -12
15 -11 17 10 15 15 -2 23 2 22 9 -2 8 4 10 14 6 11 -4 14 -3 9 5 -5 8 -1 10
10 5 12 -4 15 -3 10 5 -5 8 -1 10 10 5 12 -4 15 -3 10 5 -9 16 7 15 22 0 10
-10 5 -15 -25 -23 -43 -12 -83 -63 -83 -106 0 -54 -16 -76 -68 -93 -77 -26
-94 -51 -100 -143 -3 -60 -9 -83 -25 -100 -11 -13 -26 -23 -33 -23 -21 0 -64
-60 -64 -88 0 -15 9 -45 19 -67 35 -78 36 -111 2 -164 -43 -66 -39 -110 14
-173 29 -35 32 -74 9 -142 -15 -44 -15 -51 -1 -81 8 -18 42 -52 76 -76 40 -29
58 -49 55 -59 -3 -8 -8 -61 -10 -117 l-4 -103 30 0 c29 0 30 2 30 45 0 33 4
45 15 45 9 0 15 9 15 25 0 16 -6 25 -15 25 -8 0 -15 7 -15 15 0 8 7 15 15 15
9 0 15 9 15 25 0 21 -5 25 -30 25 -20 0 -30 5 -30 15 0 9 -13 41 -29 73 -93
185 -123 424 -76 622 9 36 18 76 21 90 3 14 30 75 60 135 56 114 161 255 190
255 13 0 13 -2 2 -15 -30 -33 -38 -45 -38 -54 0 -5 -9 -12 -19 -16 -12 -4 -18
-12 -14 -21 3 -7 0 -14 -7 -14 -6 0 -8 -4 -5 -10 3 -5 -3 -10 -14 -10 -19 0
-26 -10 -22 -32 0 -5 -4 -8 -10 -8 -5 0 -7 -4 -4 -10 3 -5 2 -10 -4 -10 -5 0
-12 -14 -16 -30 -4 -18 -11 -27 -18 -23 -6 4 -8 0 -4 -10 3 -10 3 -17 -2 -17
-11 0 -42 -80 -35 -91 3 -5 -2 -16 -10 -25 -14 -14 -20 -41 -19 -81 1 -7 -3
-13 -7 -13 -5 0 -8 -8 -8 -17 0 -10 -4 -36 -9 -58 -16 -67 -4 -288 19 -344 6
-14 10 -31 9 -38 -1 -7 6 -29 15 -50 9 -21 16 -44 15 -50 -1 -7 3 -13 9 -13 5
0 10 -9 10 -20 0 -11 4 -20 9 -20 5 0 12 -13 16 -30 5 -21 15 -32 38 -41 l32
-11 -3 -114 -3 -114 31 0 31 0 -2 110 c-1 95 -3 110 -18 110 -18 0 -19 2 -78
120 -66 134 -87 230 -87 390 0 150 20 247 74 367 56 124 164 259 272 343 60
46 167 102 241 125 120 38 117 40 117 -56 0 -66 5 -92 26 -139 32 -72 29 -94
-12 -98 -24 -2 -37 4 -62 33 -24 25 -41 35 -63 35 -18 0 -28 -4 -24 -10 3 -5
0 -10 -7 -10 -7 0 -26 -7 -43 -16 -63 -35 -127 -65 -131 -62 -2 2 35 24 81 48
46 25 82 46 80 48 -2 2 -44 -18 -93 -44 -63 -34 -88 -53 -85 -64 3 -10 -7 -19
-29 -27 -72 -25 -112 -42 -99 -43 11 0 11 -3 1 -15 -14 -17 -55 -21 -44 -4 3
6 -5 3 -20 -6 -34 -22 -33 -47 3 -87 34 -38 44 -35 32 9 -14 48 7 68 89 88 39
10 144 23 233 30 89 6 149 14 132 17 -20 3 -11 5 25 6 41 0 49 -2 30 -8 l-25
-8 24 -1 c24 -1 24 0 5 -66 -8 -29 38 -55 66 -37 11 7 26 12 35 12 8 0 12 6 9
14 -11 28 16 26 30 -2 8 -16 14 -31 13 -33 -1 -2 3 2 9 9 14 15 26 -5 32 -55
1 -6 11 -9 22 -6 15 4 19 11 14 25 -4 14 -2 18 5 14 6 -4 11 -14 11 -22 0 -19
26 -18 34 2 4 11 13 14 31 10 20 -5 25 -3 25 13 0 11 -7 36 -16 55 -9 19 -14
42 -10 51 6 16 21 17 169 12 124 -4 177 -10 225 -26 94 -31 102 -37 102 -76 0
-19 3 -35 8 -35 11 1 62 72 57 80 -3 4 -62 41 -132 83 -271 158 -295 165 -363
103 -42 -37 -48 -40 -74 -30 -22 8 -20 38 5 109 17 47 20 76 17 133 -3 42 -1
72 5 72 25 0 138 -35 193 -60 95 -43 172 -100 260 -193 129 -136 187 -249 228
-442 3 -16 4 -15 5 4 4 81 -87 289 -166 383 -24 27 -43 53 -43 57 0 23 -153
155 -202 174 -10 3 -18 11 -18 17 0 5 -5 10 -12 10 -7 0 -56 21 -110 48 -87
42 -98 50 -98 74 0 14 6 28 13 31 8 3 1 18 -21 46 -43 54 -30 53 20 -1 35 -38
41 -41 49 -25 14 23 28 22 22 -3 -5 -17 -1 -20 28 -19 19 0 43 4 53 8 46 18
166 -62 166 -111 0 -19 -5 -15 -26 20 -34 57 -67 72 -160 72 -43 0 -74 -3 -71
-6 9 -10 109 -43 128 -44 9 0 28 -9 43 -21 14 -11 30 -18 35 -14 6 3 18 -6 27
-19 10 -16 29 -28 52 -32 21 -3 51 -10 67 -15 26 -7 24 -8 -17 -6 -33 1 -48
-2 -48 -10 0 -7 10 -13 21 -13 27 0 87 -35 116 -68 29 -32 58 -23 49 16 -6 26
-6 26 9 8 8 -11 15 -34 15 -50 1 -55 31 -99 88 -129 28 -16 52 -33 52 -38 0
-11 -2 -10 -63 28 -32 20 -38 21 -43 8 -3 -8 -11 -12 -16 -9 -6 4 3 -20 20
-52 29 -56 80 -210 75 -226 -2 -5 2 -8 7 -8 6 0 11 -15 11 -32 0 -18 2 -78 4
-133 5 -93 -17 -270 -35 -285 -3 -3 -7 -21 -8 -40 -2 -19 -7 -37 -13 -40 -5
-4 -7 -14 -3 -23 3 -9 2 -17 -4 -17 -6 0 -8 -10 -4 -22 3 -13 1 -19 -5 -15 -6
4 -15 -12 -22 -34 -8 -25 -17 -39 -25 -36 -7 3 -17 -8 -24 -25 -12 -32 -1 -43
34 -36 19 3 69 81 90 142 18 49 32 66 53 66 10 0 27 9 39 20 12 11 25 21 29
23 5 1 7 22 7 47 -2 49 -39 134 -54 125 -14 -9 -13 119 2 150 11 24 28 34 28
16 0 -5 9 -7 20 -4 11 3 20 12 20 20 0 37 -83 155 -103 147 -8 -3 -19 20 -31
63 -17 61 -42 116 -84 181 -25 39 4 23 33 -18 15 -22 31 -37 36 -34 5 3 9 2 9
-3 0 -4 4 -14 9 -21 7 -11 12 -12 29 -1 16 10 18 17 10 32 -5 10 -7 21 -4 24
3 3 11 -6 17 -21 10 -20 9 -41 -1 -96 -13 -69 -13 -70 14 -110 14 -22 30 -40
35 -40 5 0 18 -23 30 -51 25 -58 23 -85 -16 -160 l-26 -49 26 -75 c31 -92 24
-141 -30 -183 -50 -39 -61 -67 -57 -137 2 -33 4 -77 5 -98 1 -20 3 -37 5 -37
2 0 26 44 53 98 82 164 111 295 111 499 0 146 -8 190 -66 362 -25 76 -85 193
-120 238 -19 23 -34 46 -34 52 0 17 -223 235 -260 255 -79 40 -90 48 -90 57 0
5 -8 9 -19 9 -10 0 -24 7 -31 15 -7 8 -20 15 -30 15 -10 0 -23 7 -30 15 -7 8
-17 12 -22 9 -5 -3 -18 2 -29 12 -13 12 -19 13 -19 4 0 -9 -6 -8 -19 4 -11 10
-24 16 -28 13 -5 -3 -40 3 -78 13 -39 11 -73 20 -77 20 -5 0 -8 5 -8 11 0 19
104 3 200 -29 413 -140 690 -454 780 -882 18 -89 24 -268 11 -361 -23 -160
-100 -379 -153 -437 -12 -12 -31 -37 -42 -56 -49 -79 -92 -136 -103 -136 -7 0
-18 -9 -25 -21 -14 -22 -121 -99 -138 -99 -5 0 -10 -4 -10 -9 0 -5 -13 -14
-30 -21 -16 -7 -30 -16 -30 -21 0 -5 -6 -9 -14 -9 -8 0 -21 -7 -30 -15 -8 -8
-23 -16 -33 -18 -10 -1 -28 -10 -41 -18 -12 -9 -34 -15 -47 -13 -14 1 -25 -2
-25 -7 0 -5 -7 -9 -16 -9 -9 0 -12 -5 -8 -11 4 -7 1 -10 -7 -7 -8 3 -37 -3
-64 -12 -28 -10 -62 -17 -75 -16 -14 1 -28 -2 -31 -6 -3 -5 -25 -10 -50 -13
-24 -3 -54 -8 -66 -11 -13 -2 -23 0 -23 6 0 5 12 10 28 10 15 0 45 5 67 12 40
11 40 11 15 22 -38 17 -65 38 -84 68 -14 22 -16 39 -10 104 5 57 4 75 -4 70
-8 -5 -12 2 -12 19 0 17 -5 25 -12 23 -9 -3 -15 -36 -18 -96 -3 -53 -10 -96
-18 -104 -9 -9 -12 -7 -12 12 0 14 -4 20 -9 14 -10 -11 -22 -374 -12 -374 4 0
13 35 20 79 l13 78 86 6 c171 13 361 79 510 178 97 63 238 190 287 258 17 23
42 58 57 77 33 44 103 187 133 272 85 246 79 560 -17 802 -63 161 -150 291
-281 421 -159 158 -362 261 -596 304 -87 16 -91 18 -91 44 -1 39 -34 104 -65
129 -29 23 -73 27 -111 12z m90 -44 c24 -51 21 -119 -7 -152 -16 -19 -29 -25
-43 -20 -51 16 -75 145 -34 186 31 31 65 26 84 -14z m-112 -59 c-4 -71 -3 -74
28 -105 37 -37 52 -40 80 -12 21 21 35 27 25 10 -3 -5 3 -20 15 -32 14 -15 19
-30 15 -45 -3 -12 -1 -25 5 -28 5 -3 10 -11 10 -18 0 -8 -3 -8 -11 0 -8 8 -18
7 -37 -3 -40 -20 -52 -17 -53 14 0 15 -4 36 -9 47 -7 16 -9 13 -9 -17 -1 -42
-9 -50 -62 -54 -31 -3 -39 0 -40 14 -2 30 2 57 11 66 5 5 5 16 1 25 -28 53
-20 153 15 192 9 11 18 19 18 19 1 0 0 -33 -2 -73z m-125 -234 c-48 -46 -60
-53 -94 -52 -29 0 -33 2 -18 8 11 5 23 7 28 4 4 -2 7 0 7 6 0 6 -10 16 -22 22
-21 11 -22 11 -9 -4 18 -23 6 -21 -40 5 -21 11 -36 25 -33 30 3 4 9 6 14 3 5
-3 21 0 36 6 16 5 25 7 21 3 -9 -9 32 -54 48 -54 14 0 65 48 65 61 0 5 -7 9
-15 9 -8 0 -15 5 -15 10 0 6 4 10 9 10 6 0 13 -4 16 -10 3 -5 16 -9 28 -9 17
1 18 2 4 6 -9 2 -15 9 -11 14 3 6 12 5 21 -3 13 -10 7 -19 -40 -65z m418 57
c3 -5 1 -10 -4 -10 -6 0 -11 5 -11 10 0 6 2 10 4 10 3 0 8 -4 11 -10z m-447
-19 c3 -10 0 -12 -11 -8 -11 4 -14 2 -10 -9 6 -17 -8 -18 -26 -1 -11 10 -13
10 -7 0 8 -14 -10 -18 -18 -5 -8 13 11 35 23 28 6 -4 11 -2 11 4 0 16 32 8 38
-9z m-170 -60 c-2 -9 -15 -24 -30 -33 -15 -9 -43 -42 -62 -72 -42 -66 -72 -78
-112 -47 -17 14 -35 19 -48 16 -17 -5 -18 -4 -6 4 8 6 11 11 7 11 -5 0 -1 7 7
16 9 8 20 12 26 9 5 -3 10 -1 10 5 0 7 12 4 30 -7 17 -9 30 -21 30 -26 0 -4
-5 -5 -12 -1 -7 4 -8 3 -4 -4 9 -16 35 -4 32 15 -2 8 -13 21 -27 29 -13 7 -18
13 -10 14 8 0 11 3 8 7 -8 7 18 26 87 64 51 28 78 28 74 0z m329 -37 c-3 -4 1
-13 9 -22 14 -13 17 -13 25 -1 7 12 9 12 9 -1 0 -29 -16 -41 -44 -34 -33 8
-55 42 -35 55 16 10 45 12 36 3z m158 -21 c5 -20 2 -29 -12 -37 -25 -14 -26
-14 -29 9 -8 52 28 77 41 28z m-270 8 c5 -9 -26 -25 -50 -26 -20 -1 -225 -87
-225 -95 0 -4 -15 -14 -32 -21 -33 -13 -66 -39 -51 -39 4 0 -11 -10 -34 -22
-24 -12 -43 -28 -43 -35 0 -7 -6 -10 -16 -6 -13 5 -12 9 8 30 65 70 204 150
338 194 97 32 97 32 105 20z m183 -45 c0 -49 -138 -138 -152 -99 -15 37 -6 48
46 61 30 7 64 23 78 37 13 14 25 25 26 25 1 0 2 -11 2 -24z m118 -42 c17 5 26
2 30 -9 7 -18 -21 -65 -38 -65 -19 0 -78 62 -78 81 0 16 2 16 30 2 18 -8 41
-12 56 -9z m-66 -54 c11 -7 2 -9 -28 -6 -24 2 -46 7 -49 10 -10 10 61 6 77 -4z
m655 -10 c8 -13 -5 -13 -25 0 -13 8 -13 10 2 10 9 0 20 -4 23 -10z m-728 -73
c-3 -21 -4 -20 -15 6 -7 16 -9 33 -6 39 10 16 26 -19 21 -45z m80 -9 c-3 -8
-6 -5 -6 6 -1 11 2 17 5 13 3 -3 4 -12 1 -19z m19 -93 c-6 -24 -9 -25 -69 -21
-83 6 -84 8 -7 15 60 6 65 8 69 31 2 14 6 19 8 12 3 -7 2 -24 -1 -37z m342
-55 c54 -27 120 -64 147 -82 28 -18 67 -42 88 -53 48 -25 52 -31 33 -51 -15
-14 -17 -14 -24 5 -11 31 -90 84 -116 77 -11 -3 -39 -1 -61 4 -22 5 -150 10
-283 11 -167 1 -241 4 -234 11 12 12 421 14 475 3 30 -7 31 -6 12 9 -11 8 -24
16 -29 16 -5 0 -17 7 -25 14 -18 16 -81 31 -81 19 0 -5 -14 -8 -32 -7 -18 0
-48 -3 -67 -7 -20 -4 -37 -6 -39 -4 -2 1 16 21 40 44 29 27 52 41 71 41 16 0
72 -22 125 -50z m-375 13 c8 -8 -47 -43 -68 -43 -18 0 -28 17 -21 35 5 15 76
22 89 8z m-264 -47 c7 -8 -11 -11 -67 -11 -43 0 -92 -3 -109 -7 -18 -4 -33 -4
-33 1 0 4 28 11 62 15 34 3 66 10 70 14 11 11 65 3 77 -12z m75 2 c-3 -4 -16
-8 -30 -8 -13 0 -24 4 -24 8 0 5 13 9 30 9 16 0 27 -4 24 -9z m1093 -770 c-3
-8 -6 -5 -6 6 -1 11 2 17 5 13 3 -3 4 -12 1 -19z m-1128 -539 c35 -19 67 -56
58 -65 -2 -3 -21 12 -41 32 -32 32 -41 36 -73 31 -19 -4 -44 -14 -54 -23 -11
-9 -19 -12 -19 -6 0 16 50 52 72 52 11 0 37 -9 57 -21z m-280 -5 c2 -2 -12 -4
-32 -4 -20 0 -38 4 -42 9 -5 9 64 4 74 -5z m248 -92 c8 -20 9 -33 3 -37 -6 -3
-10 3 -10 14 0 12 -7 21 -15 21 -8 0 -15 -6 -15 -14 0 -20 -27 -28 -34 -10
-11 28 21 67 49 60 5 -1 15 -16 22 -34z m102 -15 c0 -21 -1 -21 -9 -2 -12 28
-12 37 0 30 6 -3 10 -16 9 -28z m178 -29 c-3 -8 -6 -5 -6 6 -1 11 2 17 5 13 3
-3 4 -12 1 -19z m-179 -25 c-2 -9 -8 -18 -15 -20 -7 -3 -9 3 -6 16 6 25 26 28
21 4z m-78 -73 c-8 -5 -19 -10 -25 -10 -5 0 -3 5 5 10 8 5 20 10 25 10 6 0 3
-5 -5 -10z"/>
<path d="M1342 2618 c-27 -35 -25 -102 4 -91 8 3 14 -1 15 -11 3 -29 4 -34 12
-43 27 -27 50 94 27 138 -12 22 -43 25 -58 7z"/>
<path d="M1271 2505 c-1 -60 10 -85 36 -85 17 0 17 19 -1 39 -8 9 -19 36 -24
61 l-10 45 -1 -60z"/>
<path d="M882 2274 c-51 -25 -53 -27 -33 -41 27 -18 52 -6 26 14 -21 14 -13
17 13 5 12 -6 25 0 44 20 33 35 19 35 -50 2z"/>
<path d="M830 2225 c0 -2 10 -10 23 -16 20 -11 21 -11 8 4 -13 16 -31 23 -31
12z"/>
<path d="M760 2177 c0 -3 12 -12 26 -22 15 -9 23 -12 20 -6 -7 11 -46 35 -46
28z"/>
<path d="M615 2072 c-14 -9 -13 -28 1 -42 7 -7 10 -2 10 20 0 16 0 30 0 30 -1
0 -6 -4 -11 -8z"/>
<path d="M595 2020 c10 -11 20 -20 23 -20 3 0 -3 9 -13 20 -10 11 -20 20 -23
20 -3 0 3 -9 13 -20z"/>
<path d="M565 1980 c10 -11 20 -20 23 -20 3 0 -3 9 -13 20 -10 11 -20 20 -23
20 -3 0 3 -9 13 -20z"/>
<path d="M1085 1690 c-4 -6 -63 -10 -143 -10 l-137 0 3 -386 c2 -351 1 -388
-14 -405 -17 -18 -14 -19 104 -19 111 0 141 7 112 25 -6 4 -10 67 -10 156 l0
149 37 0 c20 0 45 -7 55 -17 17 -15 18 -12 18 102 0 101 -2 116 -14 106 -8 -7
-34 -11 -58 -9 l-43 3 0 60 0 60 43 3 c24 2 50 -2 58 -9 12 -10 14 4 14 95 0
96 -7 125 -25 96z"/>
<path d="M1785 1690 c-77 -4 -140 -8 -140 -9 0 0 1 -175 3 -388 2 -256 -1
-390 -8 -397 -22 -22 -6 -26 105 -26 93 0 115 3 115 14 0 8 -6 16 -12 18 -14
5 -25 228 -14 273 5 21 12 25 46 25 21 0 42 -4 45 -10 18 -28 25 0 25 93 0
107 -4 124 -26 106 -7 -6 -30 -9 -51 -7 l-38 3 0 65 0 65 38 3 c21 2 45 -2 53
-9 12 -10 14 3 14 90 0 55 -3 100 -7 99 -5 -1 -71 -5 -148 -8z"/>
<path d="M1347 1613 c-13 -13 -7 -20 18 -20 15 0 25 5 25 13 0 14 -31 19 -43
7z"/>
<path d="M1550 1554 c0 -11 -5 -14 -16 -10 -13 5 -14 2 -8 -11 11 -27 17 -90
10 -119 -5 -20 -11 -24 -29 -18 -18 5 -20 4 -9 -7 17 -18 15 -32 -3 -25 -13 5
-14 2 -4 -15 15 -29 -5 -51 -24 -25 -12 16 -13 12 -14 -32 -1 -42 5 -57 36
-98 40 -52 60 -65 60 -37 1 10 3 107 7 216 3 108 3 197 0 197 -3 0 -6 -7 -6
-16z"/>
<path d="M1206 1468 c-11 -43 -7 -157 7 -165 7 -4 23 -25 37 -45 14 -21 33
-38 43 -38 9 0 17 -5 17 -10 0 -6 11 -15 24 -21 13 -6 27 -20 29 -31 10 -35
27 -8 26 40 0 45 -25 208 -28 187 -3 -19 -31 29 -31 52 0 13 -5 23 -11 23 -7
0 -9 -10 -5 -27 l6 -28 -16 23 c-9 12 -24 22 -33 22 -9 0 -22 9 -29 20 -16 26
-28 25 -36 -2z"/>
<path d="M310 1447 c0 -2 15 -14 33 -27 20 -15 27 -17 18 -6 -13 16 -51 41
-51 33z"/>
<path d="M2240 1310 c0 -79 3 -141 6 -138 3 3 5 65 5 138 0 73 -2 135 -5 138
-3 3 -6 -59 -6 -138z"/>
<path d="M1460 1431 c0 -6 5 -13 10 -16 6 -3 10 1 10 9 0 9 -4 16 -10 16 -5 0
-10 -4 -10 -9z"/>
<path d="M340 1396 c0 -2 8 -10 18 -17 15 -13 16 -12 3 4 -13 16 -21 21 -21
13z"/>
<path d="M1211 1274 c0 -11 3 -14 6 -6 3 7 2 16 -1 19 -3 4 -6 -2 -5 -13z"/>
<path d="M1222 1180 c0 -19 2 -27 5 -17 2 9 2 25 0 35 -3 9 -5 1 -5 -18z"/>
<path d="M316 1186 c3 -8 18 -23 32 -32 24 -16 26 -16 13 -1 -7 9 -10 17 -5
17 9 0 -28 29 -38 30 -4 0 -5 -6 -2 -14z"/>
<path d="M1234 1083 c3 -32 8 -85 11 -118 9 -99 15 -123 30 -129 9 -3 65 -3
125 1 135 8 135 7 50 101 -15 17 -33 44 -40 61 -6 17 -18 36 -26 42 -8 6 -14
23 -14 36 0 18 -4 24 -15 19 -8 -3 -34 6 -57 19 -66 38 -71 35 -64 -32z m153
-215 c-3 -7 -5 -2 -5 12 0 14 2 19 5 13 2 -7 2 -19 0 -25z"/>
<path d="M1522 1085 c-15 -55 -15 -75 -2 -75 5 0 10 10 9 23 0 12 3 39 6 60 9
51 2 47 -13 -8z"/>
<path d="M2221 1104 c0 -11 3 -14 6 -6 3 7 2 16 -1 19 -3 4 -6 -2 -5 -13z"/>
<path d="M330 1106 c0 -3 9 -10 20 -16 11 -6 20 -8 20 -6 0 3 -9 10 -20 16
-11 6 -20 8 -20 6z"/>
<path d="M2201 1043 c-7 -21 -28 -69 -47 -106 -18 -38 -27 -64 -19 -57 16 13
87 178 83 191 -2 6 -10 -7 -17 -28z"/>
<path d="M1440 1042 c0 -5 7 -15 15 -22 8 -7 15 -8 15 -2 0 5 -7 15 -15 22 -8
7 -15 8 -15 2z"/>
<path d="M1476 982 c-4 -7 34 -95 40 -89 7 7 9 97 2 97 -4 0 -8 -5 -8 -11 0
-8 -4 -8 -14 0 -8 7 -17 8 -20 3z"/>
<path d="M877 812 l-58 -3 2 -109 3 -109 58 0 58 1 1 106 c0 59 3 100 6 92 3
-8 12 -23 20 -32 12 -13 14 -36 11 -93 l-3 -75 27 0 28 0 0 81 c0 58 4 85 15
95 13 14 15 5 15 -80 l0 -96 25 0 26 0 -3 113 -3 112 -85 0 c-47 0 -111 -1
-143 -3z"/>
<path d="M1134 811 c-2 -2 -4 -53 -4 -113 l0 -108 60 0 61 0 -3 108 -3 107
-53 5 c-29 3 -55 4 -58 1z"/>
<path d="M1278 809 c-15 -8 -18 -25 -18 -102 0 -51 4 -98 9 -105 5 -9 25 -12
57 -10 l49 3 3 64 c2 45 -1 67 -10 72 -10 7 -10 9 0 9 18 0 16 67 -4 74 -24 9
-67 7 -86 -5z"/>
<path d="M1686 812 c-3 -3 -6 -54 -6 -114 l0 -108 60 0 60 0 0 85 c0 50 4 85
10 85 6 0 10 -35 10 -85 l0 -85 30 0 30 0 0 85 c0 50 4 85 10 85 6 0 10 -35
10 -85 l0 -85 60 0 61 0 -3 108 -3 107 -55 2 c-30 1 -57 2 -60 3 -14 5 -209 7
-214 2z"/>
<path d="M2170 812 c-16 -6 -12 -114 5 -136 8 -11 15 -35 15 -53 0 -29 3 -33
25 -33 22 0 25 4 25 38 0 20 7 46 15 56 9 12 15 42 15 72 l0 52 -45 4 c-24 2
-49 2 -55 0z"/>
<path d="M694 797 c-2 -7 -3 -56 -2 -108 l3 -94 52 -3 c63 -4 65 1 61 128 l-3
85 -53 3 c-37 2 -54 -1 -58 -11z"/>
<path d="M1450 700 l0 -110 25 0 c23 0 25 4 25 40 0 27 5 43 15 46 8 4 15 17
15 30 0 15 -6 24 -15 24 -8 0 -15 7 -15 15 0 8 7 15 15 15 9 0 15 9 15 25 0
23 -4 25 -40 25 l-40 0 0 -110z"/>
<path d="M1548 763 c-1 -27 -2 -76 -2 -110 l-1 -63 60 0 60 0 3 80 c2 45 0 94
-3 110 -6 29 -9 30 -61 30 l-54 0 -2 -47z"/>
<path d="M2037 803 c-4 -3 -7 -30 -7 -59 0 -40 4 -56 18 -63 16 -10 16 -10 0
-11 -19 0 -24 -32 -12 -64 9 -23 99 -23 108 0 10 25 7 93 -4 115 -7 13 -7 19
0 19 5 0 8 10 6 23 -3 12 -5 28 -5 35 -1 13 -92 18 -104 5z"/>
<path d="M1315 503 c4 -32 7 -66 7 -75 -1 -25 19 -22 25 3 3 11 11 18 18 15
17 -6 25 15 25 70 l0 44 -41 0 -42 0 8 -57z"/>
<path d="M1660 547 c0 -10 -11 -14 -40 -12 -73 4 -134 -58 -127 -129 5 -47 60
-102 120 -117 54 -15 103 -5 225 42 84 34 229 128 287 188 56 58 24 51 -39 -9
-29 -27 -56 -50 -59 -50 -9 0 -111 -64 -118 -74 -4 -5 -12 -5 -18 -2 -6 4 -11
3 -11 -1 0 -5 -17 -15 -37 -22 -21 -8 -41 -19 -45 -25 -4 -6 -10 -7 -14 -3 -9
9 -20 1 114 78 108 61 192 121 192 138 0 5 -14 8 -30 7 -20 -1 -29 -5 -25 -13
2 -8 -4 -13 -15 -13 -14 0 -18 -5 -13 -16 5 -14 3 -15 -14 -5 -16 8 -24 7 -38
-9 -9 -10 -14 -24 -9 -31 4 -8 3 -10 -4 -5 -13 7 -72 -23 -72 -36 0 -4 -6 -8
-14 -8 -8 0 -22 -7 -30 -16 -9 -8 -20 -13 -25 -9 -5 3 -12 1 -16 -5 -4 -6 -11
-8 -16 -5 -5 4 -9 -1 -9 -10 0 -9 -4 -13 -10 -10 -5 3 -20 -3 -32 -14 -25 -24
-33 -25 -79 -10 -70 24 -99 77 -63 113 17 17 25 19 48 10 12 -5 13 -10 5 -25
-5 -10 -15 -19 -21 -19 -7 0 -6 5 2 15 10 12 9 15 -4 15 -28 0 -32 -31 -7 -51
12 -10 20 -23 16 -29 -4 -6 5 -10 22 -11 50 -2 68 2 89 22 12 11 34 23 50 28
34 9 40 23 19 44 -25 26 -17 32 10 7 14 -13 27 -21 30 -18 3 2 -4 13 -15 23
-20 18 -20 18 0 35 11 10 40 23 65 29 66 17 66 31 -1 31 -47 0 -64 -5 -92 -27
-34 -25 -35 -26 -30 -5 4 12 2 20 -3 16 -5 -3 -9 -14 -9 -25 0 -25 -12 -24
-36 2 -28 31 -54 43 -54 26z m-3 -53 c-3 -3 -12 -4 -19 -1 -8 3 -5 6 6 6 11 1
17 -2 13 -5z m-95 -26 c-7 -7 -12 -26 -12 -43 0 -32 35 -74 75 -90 18 -7 18
-9 3 -12 -27 -7 -77 34 -86 70 -10 35 3 87 21 87 7 0 7 -4 -1 -12z m103 -148
c3 -5 1 -10 -4 -10 -6 0 -11 5 -11 10 0 6 2 10 4 10 3 0 8 -4 11 -10z m75 6
c0 -3 -4 -8 -10 -11 -5 -3 -10 -1 -10 4 0 6 5 11 10 11 6 0 10 -2 10 -4z"/>
<path d="M1830 490 c-9 -5 -9 -9 -1 -14 6 -4 11 -2 11 4 0 6 4 8 10 5 5 -3 17
-2 26 3 14 8 13 10 -8 10 -14 0 -31 -4 -38 -8z"/>
<path d="M1360 401 c0 -25 6 -27 13 -6 4 8 2 17 -3 20 -6 4 -10 -3 -10 -14z"/>
</g>
</svg>
