<svg version="1.0" xmlns="http://www.w3.org/2000/svg"
 width="395.000000pt" height="395.000000pt" viewBox="0 0 395.000000 395.000000"
 preserveAspectRatio="xMidYMid meet">
<g transform="translate(0.000000,395.000000) scale(0.100000,-0.100000)"
fill="#000000" stroke="none">
<path d="M217 3405 c-50 -17 -85 -50 -108 -100 -18 -38 -19 -84 -19 -867 l0
-828 1100 0 1100 0 0 28 c1 39 34 108 62 126 12 8 43 20 68 26 43 11 47 15 63
61 l18 49 -26 43 c-49 84 -29 146 77 244 88 80 139 90 213 40 l36 -25 54 21
c51 20 54 24 60 64 11 76 68 123 150 123 l45 0 0 428 c0 394 -2 430 -19 467
-24 51 -56 81 -110 100 -38 13 -204 15 -1385 15 -1110 -1 -1348 -3 -1379 -15z
m1701 -377 c18 -18 15 -49 -10 -88 -11 -19 -55 -93 -96 -165 -41 -71 -98 -170
-127 -220 -55 -96 -219 -379 -291 -506 -50 -88 -65 -103 -93 -94 -32 10 -37
49 -11 92 13 21 33 56 45 78 13 22 80 139 150 260 70 121 136 236 147 255 115
202 213 368 226 383 18 20 43 22 60 5z m-730 -140 c7 -7 12 -20 12 -30 0 -10
-74 -92 -165 -184 -91 -91 -166 -169 -168 -174 -1 -5 73 -85 166 -179 92 -93
167 -174 167 -180 0 -15 -37 -51 -52 -51 -19 0 -388 373 -395 399 -5 20 21 50
188 217 192 192 218 211 247 182z m1069 -180 c119 -119 193 -200 193 -212 0
-29 -378 -406 -407 -406 -21 0 -43 25 -43 50 0 6 77 88 170 183 94 94 170 172
170 173 0 1 -76 80 -170 174 -93 94 -170 179 -170 189 0 23 20 41 44 41 14 0
89 -68 213 -192z"/>
<path d="M3012 2303 c-6 -10 -13 -37 -17 -61 -8 -47 -33 -77 -73 -87 -14 -3
-44 -15 -66 -26 -53 -25 -67 -24 -124 11 -27 17 -53 30 -59 30 -12 0 -133
-120 -134 -134 -3 -25 4 -42 33 -83 l31 -42 -26 -58 c-14 -32 -29 -71 -33 -86
-8 -34 -36 -53 -92 -62 -64 -10 -72 -24 -72 -116 0 -102 8 -116 68 -125 63 -9
77 -17 92 -56 7 -18 24 -59 38 -90 l25 -58 -37 -52 c-20 -29 -36 -57 -36 -61
0 -5 28 -38 62 -73 69 -72 89 -78 146 -39 46 31 65 31 136 0 31 -14 62 -25 70
-25 23 0 44 -34 51 -83 4 -26 14 -55 22 -62 19 -20 185 -21 201 -2 5 6 13 33
17 59 9 62 18 71 95 103 95 40 124 42 163 13 57 -43 63 -43 132 20 35 31 66
65 70 75 4 11 -5 36 -26 70 -18 28 -32 57 -32 63 0 20 65 169 79 180 8 6 37
14 64 18 34 5 53 13 60 26 13 25 13 187 -1 195 -5 4 -38 14 -71 23 l-61 17
-38 90 c-40 97 -40 93 9 167 23 36 24 39 8 62 -21 33 -118 126 -131 126 -5 0
-30 -14 -55 -30 -25 -16 -52 -30 -60 -30 -23 0 -160 55 -180 72 -9 9 -21 37
-25 64 -4 27 -12 55 -17 62 -7 8 -41 12 -104 12 -79 0 -95 -3 -102 -17z m238
-419 c161 -74 237 -273 165 -431 -65 -145 -215 -220 -372 -187 -76 16 -116 39
-171 98 -63 68 -85 126 -85 221 0 62 5 91 22 129 33 70 96 134 166 167 83 40
194 41 275 3z"/>
<path d="M90 1450 c0 -121 33 -183 115 -221 38 -18 92 -19 1150 -19 l1111 0
17 29 c16 28 16 32 1 68 -28 65 -30 68 -65 74 -67 11 -113 54 -125 115 l-6 34
-1099 0 -1099 0 0 -80z"/>
<path d="M1192 958 c-18 -90 -32 -166 -32 -170 0 -5 198 -8 441 -8 l441 0 -5
28 c-3 15 -18 91 -33 170 l-28 142 -376 0 -376 0 -32 -162z"/>
<path d="M943 675 c-42 -18 -63 -61 -63 -131 0 -59 25 -116 55 -128 21 -8
1307 -9 1328 -1 33 13 57 69 57 134 0 72 -18 107 -67 127 -48 21 -1263 20
-1310 -1z"/>
</g>
</svg>
